<svg xmlns="http://www.w3.org/2000/svg" viewBox="0 0 64 64">
  <defs>
    <radialGradient id="background" cx="46%" cy="42%" r="72%">
      <stop offset="0" stop-color="#17120c" />
      <stop offset="1" stop-color="#050504" />
    </radialGradient>
    <radialGradient id="halo">
      <stop offset="0" stop-color="#ffe2a8" stop-opacity="0.6" />
      <stop offset="0.46" stop-color="#d99a52" stop-opacity="0.2" />
      <stop offset="1" stop-color="#d99a52" stop-opacity="0" />
    </radialGradient>
    <radialGradient id="core" cx="38%" cy="32%" r="72%">
      <stop offset="0" stop-color="#fffaf0" />
      <stop offset="0.42" stop-color="#ffe2a8" />
      <stop offset="1" stop-color="#d99a52" />
    </radialGradient>
    <filter id="soft-glow" x="-100%" y="-100%" width="300%" height="300%">
      <feGaussianBlur stdDeviation="2.1" result="blur" />
      <feMerge><feMergeNode in="blur" /><feMergeNode in="SourceGraphic" /></feMerge>
    </filter>
  </defs>
  <rect width="64" height="64" rx="12" fill="url(#background)" />
  <circle cx="31" cy="32" r="20" fill="url(#halo)" />
  <path d="M9 37C13 19 28 10 46 16" fill="none" stroke="#f3c982" stroke-opacity="0.52" stroke-width="1.35" stroke-linecap="round" />
  <path d="M19 55C38 55 53 44 55 27" fill="none" stroke="#ffe2a8" stroke-opacity="0.3" stroke-width="1.1" stroke-linecap="round" />
  <g fill="#ffe2a8">
    <circle cx="11" cy="31" r="1.55" /><circle cx="19" cy="15" r="1.25" />
    <circle cx="47" cy="17" r="1.65" /><circle cx="54" cy="36" r="1.15" />
    <circle cx="40" cy="53" r="1.4" /><circle cx="15" cy="47" r="1" fill="#f3c982" />
  </g>
  <path d="M23 28c1.8-5.2 7.4-8.1 12.6-6.5 5.4 1.5 8.3 6.6 6.7 12-1.5 5.5-6.5 9.2-12.1 8-5.8-1.3-9.2-7.8-7.2-13.5Z" fill="url(#core)" filter="url(#soft-glow)" />
  <circle cx="29.4" cy="28.2" r="2.3" fill="#fffaf0" fill-opacity="0.88" />
</svg>
